<svg xmlns="http://www.w3.org/2000/svg" fill="none" viewBox="0 0 169 16" height="16" width="169">
<path fill="#141919" d="M124.001 16L126.697 15.3263L121.306 0.505263C121.306 0.505263 120.295 0.336842 118.61 0.336842C116.925 0.336842 116.083 0.505263 116.083 0.505263L110.691 15.4947L113.05 16L114.566 11.9579C114.735 11.6211 115.072 11.4526 115.577 11.4526C117.094 11.2842 119.958 11.2842 121.98 11.4526C122.316 11.4526 122.485 11.6211 122.653 11.9579L124.001 16ZM115.746 8.42105L117.599 3.2C117.768 2.69474 118.104 2.35789 118.61 2.35789C119.284 2.35789 119.452 2.52632 119.621 3.2L121.474 8.58947C121.643 8.92632 121.474 9.09474 120.969 9.09474C119.621 9.26316 117.262 9.26316 116.251 9.09474C115.746 9.09474 115.577 8.92632 115.746 8.42105Z"></path>
<path fill="#141919" d="M30.4949 7.41053C32.0112 6.73684 32.6851 5.55789 32.6851 4.04211C32.6851 1.51579 31.0003 0 27.4622 0C25.272 0 24.2611 0.673684 21.5654 0.505263V15.6632C24.0926 15.4947 25.272 16 27.7992 16C31.6742 16 33.359 14.3158 33.359 11.4526C33.359 9.76842 32.5166 8.42105 30.4949 7.91579C30.1579 7.74737 30.1579 7.41053 30.4949 7.41053ZM24.7666 2.18947C25.1035 2.18947 25.7774 2.02105 27.1253 2.02105C29.147 2.02105 30.1579 2.69474 30.1579 4.37895C30.1579 6.4 28.6416 6.90526 27.1253 6.90526C26.4514 6.90526 25.4405 6.90526 24.935 6.73684C24.4296 6.73684 24.2611 6.56842 24.2611 6.06316V2.69474C24.0926 2.35789 24.2611 2.35789 24.7666 2.18947ZM27.4622 13.9789C26.2829 13.9789 25.4405 13.9789 24.7666 13.8105C24.4296 13.8105 24.0926 13.4737 24.0926 13.1368C24.0926 11.9579 24.0926 9.6 24.0926 9.43158C24.0926 9.09474 24.2611 8.75789 24.935 8.58947C24.935 8.58947 25.9459 8.42105 27.1253 8.42105C30.1579 8.42105 30.4949 9.93684 30.4949 11.1158C30.6634 12.6316 29.6525 13.9789 27.4622 13.9789Z"></path>
<path fill="#141919" d="M46.5005 12.9684C45.8266 12.9684 45.8266 12.8 45.8266 12.2947V9.6C45.8266 9.09474 46.1635 8.75789 47.0059 8.75789C47.5114 8.75789 48.1853 8.92632 48.8592 8.92632C50.0386 8.92632 50.881 8.75789 50.881 8.75789L51.0494 6.90526C51.0494 6.90526 50.0386 6.4 49.0277 6.4C48.5222 6.4 47.6798 6.4 47.1744 6.56842C46.332 6.73684 45.995 6.23158 45.995 5.38947V3.36842C45.995 2.86316 46.1635 2.69474 46.669 2.69474C47.3429 2.69474 54.2506 2.69474 54.2506 2.69474V0.505263H43.4678C43.4678 0.505263 43.4678 2.86316 43.4678 4.37895C43.4678 6.06316 43.4678 6.56842 44.4787 7.24211C44.9842 7.57895 44.9842 7.91579 44.4787 8.25263C43.4678 9.09474 43.2994 9.6 43.2994 11.1158C43.2994 12.6316 43.2994 15.4947 43.2994 15.4947H54.5875V12.9684C54.5875 12.9684 47.0059 13.1368 46.5005 12.9684Z"></path>
<path fill="#141919" d="M3.20112 12.9684C2.5272 12.9684 2.5272 12.8 2.5272 12.2947V9.6C2.5272 9.09474 2.86416 8.75789 3.70656 8.75789C4.212 8.75789 4.88592 8.92632 5.55984 8.92632C6.7392 8.92632 7.5816 8.75789 7.5816 8.75789L7.75008 6.90526C7.75008 6.90526 6.7392 6.4 5.72832 6.4C5.22288 6.4 4.38048 6.4 3.87504 6.56842C3.03264 6.73684 2.5272 6.23158 2.5272 5.55789V3.53684C2.5272 3.03158 2.69568 2.86316 3.20112 2.86316C3.87504 2.86316 10.7827 2.86316 10.7827 2.86316V0.673684H0C0 0.673684 0 3.03158 0 4.54737C0 6.23158 0 6.73684 1.01088 7.41053C1.51632 7.74737 1.51632 8.08421 1.01088 8.42105C0.16848 9.09474 0 9.6 0 11.1158C0 12.6316 0 15.4947 0 15.4947H11.2882V12.9684C11.2882 12.9684 3.70656 13.1368 3.20112 12.9684Z"></path>
<path fill="#141919" d="M98.5608 0.505263V6.06316C98.5608 6.4 98.3923 6.56842 97.8869 6.73684C97.213 6.90526 94.1803 7.07368 91.4846 6.73684C90.9792 6.73684 90.8107 6.4 90.8107 5.89474V0.505263H88.2835V15.6632H90.8107V9.43158C90.8107 8.92632 90.9792 8.92632 91.4846 8.92632C94.0118 8.7579 96.2021 8.7579 98.3923 8.92632C98.5608 8.92632 98.7293 9.09474 98.7293 9.26316V15.6632H101.425V0.505263H98.5608Z"></path>
<path fill="#141919" d="M74.4682 10.6105C74.1312 10.1053 74.2997 9.93684 74.8051 9.76842C76.4899 9.26316 77.8378 7.57895 77.8378 5.38947C77.8378 2.18947 75.816 0.505263 71.7725 0.505263C69.9192 0.505263 68.9083 1.01053 65.5387 0.505263V15.6632H68.0659V10.9474C68.0659 10.4421 68.2344 10.2737 68.5714 10.2737C69.4138 10.2737 69.5822 10.2737 70.7616 10.2737C71.0986 10.2737 71.4355 10.6105 71.604 10.7789L75.9845 16L78.3432 14.8211C78.5117 14.8211 75.479 11.7895 74.4682 10.6105ZM70.9301 8.42105C69.5822 8.42105 69.4138 8.42105 68.9083 8.25263C68.2344 8.08421 68.2344 7.91579 68.2344 7.07368V3.36842C68.2344 2.86316 68.5714 2.69474 69.2453 2.69474C69.9192 2.52632 70.5931 2.52632 71.604 2.52632C73.9627 2.52632 75.1421 3.53684 75.1421 5.38947C75.3106 7.07368 74.4682 8.42105 70.9301 8.42105Z"></path>
<path fill="#141919" d="M144.556 10.6105C144.05 10.1053 144.387 9.76842 144.893 9.6C146.578 9.09474 147.925 7.41053 147.925 5.22105C147.925 2.02105 145.904 0.336842 141.86 0.336842C140.007 0.336842 138.996 0.842105 135.626 0.336842V15.4947H138.154V10.7789C138.154 10.2737 138.322 10.1053 138.659 10.1053C139.501 10.1053 139.67 10.1053 140.849 10.1053C141.186 10.1053 141.523 10.4421 141.692 10.6105L146.072 15.8316L148.431 14.6526C148.431 14.8211 145.567 11.7895 144.556 10.6105ZM141.018 8.42105C139.67 8.42105 139.501 8.42105 138.996 8.25263C138.322 8.08421 138.322 7.91579 138.322 7.07368V3.36842C138.322 2.86316 138.659 2.69474 139.333 2.69474C140.007 2.52632 140.681 2.52632 141.86 2.52632C144.219 2.52632 145.398 3.53684 145.398 5.38947C145.398 7.07368 144.556 8.42105 141.018 8.42105Z"></path>
<path fill="#141919" d="M155.507 0.505263V2.69474C155.507 2.69474 159.045 2.52632 159.888 2.69474C160.561 2.69474 160.561 2.86316 160.561 3.36842C160.561 3.70526 160.561 15.4947 160.561 15.4947H163.426C163.426 15.4947 163.426 3.70526 163.426 3.36842C163.426 2.86316 163.594 2.69474 164.1 2.69474C164.942 2.52632 168.48 2.69474 168.48 2.69474V0.505263H155.507Z"></path>
</svg>
