<svg width="397" height="59" viewBox="0 0 397 59" fill="none" xmlns="http://www.w3.org/2000/svg">
<g clip-path="url(#clip0_302_15837)">
<path d="M79.018 -0.00109863C72.7422 -0.00109863 67.6493 5.09435 67.6493 11.3858V13.3542L60.203 47.4401C60.203 47.2906 60.2279 47.1287 60.2279 46.9792V23.6572C60.2279 17.4654 55.2097 12.4447 49.021 12.4447C42.8323 12.4447 37.8142 17.4654 37.8142 23.6572V25.4637L31.7127 45.4094V40.912C31.7127 33.9852 26.1093 28.3789 19.1859 28.3789H14.7156C11.4034 28.3789 8.71375 31.0699 8.71375 34.3838V52.1992C8.71375 55.5131 11.4034 58.2041 14.7156 58.2041H19.1859C25.1878 58.2041 30.1935 53.9807 31.4138 48.3496C35.8841 43.4535 37.3535 35.8041 37.8017 30.5716V46.9792C37.8017 53.171 42.8199 58.1917 49.0086 58.1917C54.5622 58.1917 59.157 54.1552 60.0535 48.8604C65.0219 41.946 66.9271 30.609 67.6493 22.2245V46.8172C67.6493 53.1087 72.7422 58.2041 79.0304 58.2041C85.3187 58.2041 90.4116 53.1087 90.4116 46.8172V11.3858C90.3992 5.09435 85.3063 -0.00109863 79.018 -0.00109863Z" fill="url(#paint0_linear_302_15837)"/>
<path d="M6.02679 37.1127H2.1293C0.958808 37.1127 0 38.072 0 39.243V39.9905C0 41.1616 0.958808 42.1209 2.1293 42.1209H6.03924C6.33809 42.1209 6.57468 41.8842 6.57468 41.5852V37.6484C6.57468 37.3494 6.33809 37.1127 6.03924 37.1127H6.02679Z" fill="url(#paint1_linear_302_15837)"/>
<path d="M6.02679 44.4629H2.1293C0.958808 44.4629 0 45.4222 0 46.5933V47.3408C0 48.5118 0.958808 49.4711 2.1293 49.4711H6.03924C6.33809 49.4711 6.57468 49.2344 6.57468 48.9354V44.9986C6.57468 44.6996 6.33809 44.4629 6.03924 44.4629H6.02679Z" fill="url(#paint2_linear_302_15837)"/>
<path d="M162.565 54.1308H150.611V23.6952L137.088 45.8959H135.743L122.22 23.6952V54.1308H110.266V1.79346H122.22L136.416 25.0407L150.611 1.79346H162.565V54.1308Z" fill="white"/>
<path d="M209.499 16.744V54.1314H198.292V50.6181C195.826 53.4586 192.166 55.1779 187.16 55.1779C177.373 55.1779 169.304 46.5816 169.304 35.4439C169.304 24.3062 177.373 15.71 187.16 15.71C192.166 15.71 195.826 17.4292 198.292 20.2697V16.7565H209.499V16.744ZM198.292 35.4315C198.292 29.8252 194.556 26.312 189.401 26.312C184.246 26.312 180.51 29.8252 180.51 35.4315C180.51 41.0377 184.246 44.5509 189.401 44.5509C194.556 44.5509 198.292 41.0377 198.292 35.4315Z" fill="white"/>
<path d="M240.353 54.1309L233.405 44.2639L226.456 54.1309H213.606L226.979 35.1444L214.054 16.756H226.905L233.405 26.025L239.905 16.756H252.755L239.83 35.1444L253.203 54.1309H240.353Z" fill="white"/>
<path d="M256.193 6.727C256.193 3.06425 259.256 -0.000488281 262.917 -0.000488281C266.578 -0.000488281 269.641 3.06425 269.641 6.727C269.641 10.3897 266.578 13.4545 262.917 13.4545C259.256 13.4545 256.193 10.3897 256.193 6.727ZM257.313 16.7435H268.52V54.1308H257.313V16.7435Z" fill="white"/>
<path d="M332.789 31.1826V54.1308H321.582V32.1543C321.582 28.4168 319.789 26.0248 316.203 26.0248C312.616 26.0248 310.375 28.6411 310.375 33.0513V54.1308H299.168V32.1543C299.168 28.4168 297.375 26.0248 293.789 26.0248C290.203 26.0248 287.961 28.6411 287.961 33.0513V54.1308H276.755V16.7434H287.961V20.1819C289.68 17.6404 292.967 15.6969 297.973 15.6969C302.381 15.6969 305.668 17.4909 307.76 20.6304C309.852 17.6404 313.289 15.6969 318.593 15.6969C327.185 15.6969 332.789 21.8264 332.789 31.1701V31.1826Z" fill="white"/>
<path d="M396.526 31.1826V54.1308H385.319V32.1543C385.319 28.4168 383.526 26.0248 379.939 26.0248C376.353 26.0248 374.112 28.6411 374.112 33.0513V54.1308H362.905V32.1543C362.905 28.4168 361.112 26.0248 357.526 26.0248C353.94 26.0248 351.698 28.6411 351.698 33.0513V54.1308H340.491V16.7434H351.698V20.1819C353.417 17.6404 356.704 15.6969 361.71 15.6969C366.118 15.6969 369.405 17.4909 371.497 20.6304C373.589 17.6404 377.026 15.6969 382.33 15.6969C390.922 15.6969 396.526 21.8264 396.526 31.1701V31.1826Z" fill="white"/>
</g>
<defs>
<linearGradient id="paint0_linear_302_15837" x1="1.05574" y1="6.78868" x2="87.402" y2="48.241" gradientUnits="userSpaceOnUse">
<stop stop-color="#00A6FF"/>
<stop offset="1" stop-color="#3C2CEE"/>
</linearGradient>
<linearGradient id="paint1_linear_302_15837" x1="-5.82756" y1="35.0197" x2="74.1043" y2="72.7249" gradientUnits="userSpaceOnUse">
<stop stop-color="#006FFF"/>
<stop offset="1" stop-color="#3C2CEE"/>
</linearGradient>
<linearGradient id="paint2_linear_302_15837" x1="-8.66662" y1="41.0244" x2="71.2653" y2="78.7421" gradientUnits="userSpaceOnUse">
<stop stop-color="#006FFF"/>
<stop offset="1" stop-color="#3C2CEE"/>
</linearGradient>
<clipPath id="clip0_302_15837">
<rect width="396.523" height="58.2052" fill="white"/>
</clipPath>
</defs>
</svg>
