<svg width="289" height="45" viewBox="0 0 289 45" fill="none" xmlns="http://www.w3.org/2000/svg">
<path fill-rule="evenodd" clip-rule="evenodd" d="M18.2782 30.3401C17.8187 31.3137 17.1777 32.1498 16.3566 32.8479C15.5348 33.5452 14.5527 34.0903 13.411 34.4825C12.2687 34.8747 11.0292 35.0712 9.69256 35.0712C9.30256 35.0712 8.91966 35.0579 8.54384 35.0313C8.16731 35.0033 7.75675 34.9501 7.31144 34.8703C6.86542 34.7898 6.37827 34.6871 5.84858 34.563C5.3196 34.4375 4.69276 34.2594 3.96878 34.0268C3.49511 33.882 3.1122 33.766 2.82006 33.6789C2.52791 33.5909 2.25633 33.5045 2.00531 33.4174C1.755 33.3302 1.51036 33.2438 1.27424 33.1566C1.0374 33.0687 0.751636 32.9535 0.417655 32.808L0 24.1472H0.417655C1.08633 25.7434 1.8174 27.1868 2.61158 28.478C3.40506 29.7691 4.24036 30.8646 5.11822 31.7635C5.99536 32.6639 6.88669 33.3524 7.79149 33.831C8.69629 34.3097 9.59471 34.549 10.4867 34.549C11.4057 34.549 12.1432 34.2587 12.7012 33.6774C13.2572 33.0953 13.5365 32.3397 13.5365 31.409C13.5365 30.4502 13.2501 29.6657 12.68 29.0556C12.1091 28.4447 11.0852 27.8774 9.60889 27.3537L7.56175 26.6121C4.88847 25.6533 2.98031 24.6 1.83796 23.4514C0.695618 22.3035 0.125509 20.9296 0.125509 19.3304C0.125509 18.3133 0.355255 17.3678 0.814746 16.4969C1.27424 15.6245 1.90107 14.8689 2.69455 14.2285C3.48873 13.5895 4.42827 13.088 5.5146 12.7246C6.60093 12.3612 7.7844 12.1794 9.06644 12.1794C10.1797 12.1794 11.3079 12.2659 12.4502 12.4409C13.5919 12.6145 14.9427 12.9344 16.5027 13.3975L16.9203 20.5359H16.5027C16.0567 19.4035 15.5277 18.3591 14.915 17.401C14.3024 16.4445 13.6472 15.6172 12.9515 14.9213C12.2552 14.2248 11.5447 13.6804 10.8207 13.2889C10.096 12.8974 9.40042 12.7017 8.73175 12.7017C7.92338 12.7017 7.23415 12.9853 6.66404 13.5519C6.09251 14.1192 5.80746 14.8098 5.80746 15.6231C5.80746 17.3678 7.12991 18.6907 9.77624 19.5911L12.6169 20.5499C14.8455 21.3071 16.4608 22.2075 17.4635 23.2542C18.4661 24.3008 18.9675 25.609 18.9675 27.1787C18.9675 28.3125 18.7377 29.3666 18.2782 30.3401Z" fill="#2D2D2D"/>
<path fill-rule="evenodd" clip-rule="evenodd" d="M57.6796 19.7378C57.6796 19.3854 57.6723 19.0715 57.6586 18.7923C57.6433 18.5138 57.6296 18.2575 57.6158 18.0226C57.6006 17.7884 57.5796 17.5247 57.5513 17.2308C57.4376 15.6478 57.1529 14.4962 56.6979 13.779C56.2423 13.0603 55.5881 12.7013 54.7339 12.7013C53.5393 12.7013 52.6352 13.4126 52.0238 14.8338C51.4116 16.2565 51.1066 18.3158 51.1066 21.0134H57.6796V19.7378ZM64.7227 27.7814C64.5227 28.2593 64.3235 28.6885 64.125 29.0652C63.9258 29.4426 63.7048 29.8053 63.4629 30.1532C63.2209 30.5011 62.9434 30.8786 62.6305 31.2849C61.6343 32.5029 60.4397 33.4388 59.0452 34.0918C57.6506 34.744 56.114 35.0712 54.4355 35.0712C52.8417 35.0712 51.3551 34.7876 49.975 34.2218C48.5942 33.6567 47.3996 32.873 46.3897 31.8721C45.3791 30.8705 44.5895 29.6894 44.0208 28.3251C43.4514 26.9615 43.1674 25.482 43.1674 23.8857C43.1674 22.2614 43.4659 20.7383 44.0635 19.3164C44.6612 17.8952 45.4856 16.6542 46.539 15.5957C47.5916 14.5365 48.8224 13.7018 50.2315 13.0924C51.6398 12.4838 53.1547 12.1794 54.7774 12.1794C56.1995 12.1794 57.5086 12.3966 58.7039 12.8317C59.8993 13.2667 60.9519 13.8909 61.8625 14.7034C62.7732 15.516 63.5201 16.5021 64.1033 17.6625C64.6865 18.8237 65.0639 20.1149 65.2341 21.536H51.1066C51.1342 26.9615 53.5104 29.6738 58.2345 29.6738C60.0268 29.6738 61.5489 29.2247 62.8014 28.3251C63.2854 28.0059 63.6693 27.6802 63.954 27.3463C64.238 27.0132 64.5944 26.5124 65.0211 25.8446L65.4051 26.019C65.1494 26.7148 64.9212 27.302 64.7227 27.7814Z" fill="#2D2D2D"/>
<path fill-rule="evenodd" clip-rule="evenodd" d="M79.5213 34.4172V33.8977C79.9187 33.869 80.2445 33.7962 80.5002 33.6807C80.756 33.5652 80.9611 33.3915 81.1172 33.1605C81.2732 32.9295 81.3794 32.619 81.4365 32.2276C81.4936 31.8384 81.5217 31.3396 81.5217 30.7326V29.6496V21.4564C81.5217 20.561 81.5145 19.8304 81.5008 19.2668C81.4856 18.704 81.4647 18.2478 81.4365 17.902C81.4076 17.5548 81.365 17.273 81.3079 17.0559C81.2508 16.8389 81.1649 16.6299 81.0507 16.4276C80.9069 16.1098 80.6498 15.85 80.2777 15.647C79.9057 15.4454 79.5199 15.3439 79.1204 15.3439C78.1198 15.3439 77.047 15.864 75.9034 16.9044V29.6496V30.7326C75.9034 31.3396 75.9315 31.8384 75.9886 32.2276C76.045 32.619 76.1439 32.9295 76.2862 33.1605C76.4278 33.3915 76.6337 33.5652 76.9032 33.6807C77.1734 33.7962 77.5057 33.869 77.9038 33.8977V34.4172H65.0069V33.8977C65.829 33.8403 66.4395 33.7469 66.8368 33.6167C67.2341 33.4872 67.5607 33.265 67.8157 32.9479C68.0425 32.6308 68.1986 32.1989 68.2838 31.6515C68.3691 31.1056 68.4117 30.1558 68.4117 28.802V21.7212C68.4117 21.0885 68.3973 20.5345 68.3691 20.0592C68.3409 19.5847 68.2983 19.1741 68.2412 18.8291C68.1841 18.4833 68.1068 18.1816 68.0071 17.9219C67.9074 17.6636 67.7738 17.4186 67.6033 17.1876C67.2905 16.7852 66.9285 16.4901 66.5175 16.3033C66.1057 16.1156 65.5314 15.9935 64.7937 15.9361L64.7511 15.5035C65.3753 15.36 65.9287 15.2306 66.4113 15.1158C66.8939 15.0003 67.3403 14.8855 67.7521 14.77C68.1632 14.6552 68.5808 14.5397 69.0048 14.4249C69.4274 14.3094 69.8934 14.1659 70.4013 13.9923C70.8803 13.8496 71.3181 13.7193 71.7132 13.6046C72.1084 13.4898 72.5036 13.3603 72.8987 13.2161C73.2932 13.0719 73.7303 12.9211 74.21 12.7621C74.6897 12.6047 75.2546 12.4097 75.9034 12.1794V16.2974C76.641 15.5175 77.3294 14.8671 77.9681 14.3469C78.606 13.8268 79.2302 13.4081 79.8406 13.0896C80.4504 12.7724 81.068 12.5414 81.6922 12.3958C82.3157 12.2515 82.9832 12.1794 83.6927 12.1794C84.6571 12.1794 85.5161 12.331 86.2681 12.6334C87.0195 12.9358 87.609 13.3735 88.0345 13.9504C88.4029 14.4396 88.658 15.029 88.8003 15.7198C88.9419 16.4107 89.0134 17.3318 89.0134 18.4833V29.6658V30.7458C89.0134 31.3793 89.0271 31.8318 89.056 32.1055C89.0842 32.3792 89.1687 32.6308 89.311 32.8611C89.4815 33.1774 89.7373 33.4151 90.0775 33.574C90.4178 33.7315 90.9141 33.8403 91.5672 33.8977V34.4172H79.5213Z" fill="#2D2D2D"/>
<path fill-rule="evenodd" clip-rule="evenodd" d="M104.459 34.3406C103.308 34.8274 102.139 35.0712 100.95 35.0712C99.2829 35.0712 97.8845 34.6128 96.7552 33.6959C96.0484 33.1232 95.5536 32.4079 95.2715 31.5478C94.9886 30.6884 94.8475 29.4718 94.8475 27.8957V15.0487H89.6049C90.2017 14.7918 90.7269 14.5495 91.182 14.3203C91.6363 14.0918 92.0559 13.8633 92.4393 13.6341C92.8234 13.4056 93.2068 13.1625 93.5902 12.9057C93.9737 12.6481 94.4207 12.3337 94.9322 11.9619C96.2032 11.0188 97.3477 10.0619 98.3656 9.08977C98.7888 8.68955 99.1628 8.32499 99.4883 7.99608C99.8131 7.66863 100.123 7.32517 100.42 6.96716C100.717 6.6106 101.014 6.22421 101.311 5.81016C101.607 5.39612 101.954 4.90276 102.349 4.33081V13.0767H107.72L106.655 15.0487H102.349V27.4234C102.349 29.0556 102.619 30.2227 103.159 30.9249C103.699 31.6271 104.608 31.9771 105.887 31.9771C106.285 31.9771 106.655 31.9495 106.995 31.892C107.337 31.8353 107.777 31.7065 108.316 31.5056L108.572 31.8484C106.981 33.0228 105.61 33.8538 104.459 34.3406Z" fill="#2D2D2D"/>
<path fill-rule="evenodd" clip-rule="evenodd" d="M109.127 34.4172V33.8998C109.896 33.8419 110.458 33.748 110.814 33.6183C111.17 33.4886 111.461 33.2665 111.689 32.9492C111.917 32.6326 112.073 32.2017 112.159 31.6535C112.244 31.1075 112.287 30.1577 112.287 28.8041V21.723C112.287 21.089 112.273 20.535 112.244 20.0601C112.215 19.5852 112.165 19.1748 112.095 18.8288C112.023 18.4837 111.938 18.1817 111.838 17.9223C111.738 17.6636 111.604 17.4195 111.433 17.1879C111.12 16.7856 110.757 16.491 110.344 16.3033C109.931 16.1165 109.355 15.9941 108.615 15.9362L108.572 15.5045C109.142 15.3895 109.633 15.2817 110.046 15.1806C110.458 15.0802 110.863 14.9724 111.262 14.8574C111.661 14.7416 112.095 14.6192 112.565 14.4902C113.034 14.3605 113.596 14.1949 114.251 13.9933C114.905 13.7918 115.46 13.6261 115.916 13.4964C116.371 13.3667 116.798 13.2377 117.197 13.108C117.595 12.9783 117.994 12.8427 118.392 12.6976C118.791 12.5539 119.261 12.3817 119.802 12.1794V28.8041C119.802 29.4666 119.808 30.028 119.823 30.4882C119.837 30.9492 119.866 31.3303 119.908 31.6322C119.951 31.9342 120.015 32.187 120.1 32.3878C120.186 32.5901 120.285 32.777 120.4 32.9492C120.627 33.2665 120.919 33.4886 121.274 33.6183C121.63 33.748 122.193 33.8419 122.962 33.8998V34.4172H109.127Z" fill="#2D2D2D"/>
<mask id="mask0_13_385" style="mask-type:alpha" maskUnits="userSpaceOnUse" x="110" y="0" width="11" height="11">
<path fill-rule="evenodd" clip-rule="evenodd" d="M110.989 0H120.577V10.0465H110.989V0Z" fill="white"/>
</mask>
<g mask="url(#mask0_13_385)">
<path fill-rule="evenodd" clip-rule="evenodd" d="M115.763 0.874534C115.22 0.874534 114.702 0.985424 114.223 1.20574C113.742 1.42678 113.323 1.72934 112.979 2.10387C112.631 2.48281 112.347 2.92857 112.135 3.42795C111.927 3.91704 111.822 4.4524 111.822 5.02227C111.822 5.59435 111.928 6.13999 112.136 6.64303C112.346 7.15048 112.633 7.59111 112.99 7.95315C113.35 8.3196 113.772 8.61849 114.247 8.84174C115.175 9.2787 116.346 9.2787 117.302 8.84027C117.788 8.61703 118.217 8.31887 118.577 7.95315C118.932 7.59111 119.22 7.15122 119.43 6.64303C119.638 6.13852 119.744 5.59361 119.744 5.02227C119.744 4.4524 119.638 3.90676 119.43 3.40224C119.22 2.89553 118.933 2.4549 118.577 2.09212C118.217 1.72714 117.788 1.42899 117.302 1.20574C116.823 0.985424 116.305 0.874534 115.763 0.874534ZM115.763 10.0466C115.103 10.0466 114.478 9.91073 113.907 9.64121C113.344 9.37611 112.84 9.01993 112.411 8.58298C111.976 8.14089 111.627 7.60553 111.373 6.99307C111.119 6.37913 110.989 5.71599 110.989 5.02201C110.989 4.32803 111.119 3.6715 111.375 3.06931C111.627 2.47814 111.965 1.94719 112.381 1.49482C112.801 1.0373 113.308 0.670115 113.89 0.402069C115.06 -0.134023 116.465 -0.134023 117.635 0.402069C118.212 0.667178 118.723 1.02335 119.155 1.46177C119.59 1.90533 119.94 2.44069 120.193 3.05242C120.448 3.66783 120.577 4.33096 120.577 5.02201C120.577 5.71452 120.448 6.37766 120.193 6.99307C119.938 7.60627 119.589 8.14162 119.156 8.58298C118.723 9.02214 118.212 9.37831 117.635 9.64195C117.051 9.91073 116.421 10.0466 115.763 10.0466Z" fill="#2D2D2D"/>
</g>
<path fill-rule="evenodd" clip-rule="evenodd" d="M41.3494 26.5405C40.386 27.5568 39.3952 28.3036 38.3748 28.7823C37.3559 29.2609 36.2223 29.5003 34.9762 29.5003C32.7667 29.5003 31.0101 28.7224 29.7077 27.1661C28.4047 25.6097 27.7535 23.5083 27.7535 20.8609C27.7535 19.7263 27.8718 18.6575 28.109 17.6536C28.347 16.6498 28.6679 15.7848 29.0739 15.0573C29.4791 14.3304 29.9544 13.7557 30.4995 13.334C31.0432 12.9129 31.6374 12.7017 32.2814 12.7017H32.9052H32.9758V12.7024H32.978L36.5151 17.9321H40.1257V12.1794H32.9758V12.1817H32.2417C32.2179 12.1817 32.1956 12.1794 32.1718 12.1794C32.1343 12.1794 32.0975 12.1817 32.06 12.1817H31.936V12.1839C30.3539 12.2127 28.8741 12.5126 27.4982 13.0924C26.0539 13.7018 24.7933 14.5365 23.7167 15.5957C22.6401 16.6542 21.7978 17.9018 21.1892 19.3378C20.5799 20.7737 20.2756 22.319 20.2756 23.9729C20.2756 25.5987 20.5481 27.0848 21.0919 28.4336C21.6363 29.7832 22.3956 30.9517 23.3699 31.9378C24.3441 32.9239 25.495 33.6936 26.8233 34.2439C28.1509 34.795 29.6082 35.0712 31.1947 35.0712C35.8963 35.0712 39.4514 32.3145 41.8592 26.8019L41.3494 26.5405Z" fill="#2D2D2D"/>
<path fill-rule="evenodd" clip-rule="evenodd" d="M136.123 1.7146C135.393 1.7146 134.978 1.8246 134.504 1.9601C133.898 2.13202 133.342 2.41905 132.834 2.82118C132.186 3.30854 131.488 3.96928 130.741 4.80194C129.994 5.63534 129.086 6.73973 128.015 8.11803L123.196 14.3204H125.69V28.2178C125.69 29.5539 125.648 30.4922 125.563 31.032C125.478 31.5718 125.31 31.998 125.056 32.3105C124.802 32.6237 124.485 32.8437 124.104 32.9712C123.724 33.0994 123.125 33.1919 122.307 33.2488V33.7631H137.02V33.2488C136.033 33.2204 135.308 33.1417 134.843 33.0142C134.378 32.886 134.018 32.6514 133.764 32.3105C133.623 32.1407 133.517 31.9557 133.447 31.7561C133.377 31.5579 133.314 31.3088 133.257 31.0108C133.2 30.7122 133.165 30.3348 133.152 29.8802C133.137 29.4257 133.131 28.8713 133.131 28.2178V14.3204H136.682L137.781 12.3025H133.131V6.52045C133.131 5.18731 133.342 4.13683 133.764 3.36827C134.187 2.60044 134.841 2.22746 135.737 2.22746H136.123L139.644 7.38881H143.237V1.7146H136.123Z" fill="#2D2D2D"/>
<mask id="mask1_13_385" style="mask-type:alpha" maskUnits="userSpaceOnUse" x="138" y="12" width="28" height="33">
<path fill-rule="evenodd" clip-rule="evenodd" d="M138.712 12.8738H165.715V45H138.712V12.8738Z" fill="white"/>
</mask>
<g mask="url(#mask1_13_385)">
<path fill-rule="evenodd" clip-rule="evenodd" d="M156.047 12.8738V13.3876C157.041 13.6448 157.735 14.0583 158.134 14.6288C158.531 15.2007 158.73 16.0852 158.73 17.2835C158.73 17.9122 158.687 18.5117 158.602 19.0822C158.517 19.6534 158.361 20.2747 158.134 20.9448C157.906 21.6155 157.594 22.3866 157.197 23.2572C156.798 24.1278 156.287 25.1772 155.663 26.4039L151.702 18.3111C151.389 17.7123 151.162 17.1418 151.02 16.599C150.879 16.0568 150.808 15.6004 150.808 15.2284C150.808 14.0874 151.418 13.4726 152.639 13.3876V12.8738H138.712V13.3876C139.337 13.445 139.812 13.53 140.139 13.6441C140.465 13.7575 140.783 13.9566 141.096 14.2407C141.267 14.4115 141.416 14.5685 141.544 14.7102C141.672 14.8519 141.806 15.03 141.949 15.2429C142.09 15.4566 142.247 15.7334 142.417 16.0743C142.587 16.4158 142.814 16.87 143.099 17.4391L151.574 34.6689C147.802 38.4464 143.091 37.0882 141.064 36.3404V45C146.282 45 147.566 42.2523 150.672 37.1311L152.155 34.6747L158.602 21.7129C159.227 20.46 159.901 19.2653 160.626 18.1273C161.349 16.9878 162.052 16.0205 162.733 15.2233C162.989 14.9391 163.216 14.7044 163.415 14.5191C163.613 14.3345 163.826 14.1703 164.054 14.0278C164.28 13.8861 164.523 13.7647 164.778 13.6652C165.033 13.5656 165.346 13.4726 165.715 13.3876V12.8738H156.047Z" fill="#2D2D2D"/>
</g>
<path d="M178.831 34.1003C181.543 34.1003 183 32.9842 183 31.0467C183 29.3882 181.946 28.4737 180.272 28.2722C181.776 27.9777 182.706 27.0167 182.706 25.5907C182.706 23.9166 181.59 22.7851 178.939 22.7851H173.84V34.1003H178.831ZM178.567 24.1026C180.551 24.1026 181.249 24.8311 181.249 25.8852C181.249 27.0632 180.365 27.8382 178.521 27.8382H175.328V24.1026H178.567ZM178.66 28.9232C180.598 28.9232 181.528 29.4812 181.528 30.7212C181.528 31.3102 181.311 31.8062 180.892 32.1937C180.474 32.5812 179.699 32.7672 178.598 32.7672H175.328V28.9232H178.66Z" fill="#2D2D2D"/>
<path d="M197.515 29.3727C197.515 31.6667 196.523 32.8602 194.477 32.8602C192.493 32.8602 191.516 31.6667 191.516 29.3727V22.7851H190.013V29.4657C190.013 32.7362 191.64 34.2553 194.477 34.2553C197.174 34.2553 199.003 32.6742 199.003 29.4657V22.7851H197.515V29.3727Z" fill="#2D2D2D"/>
<path d="M205.852 31.8992C206.906 33.4493 208.596 34.2708 210.828 34.2708C213.447 34.2708 214.92 32.8447 214.92 30.9382C214.92 28.6442 212.843 28.1792 210.921 27.8382C209.138 27.5127 207.681 27.2492 207.681 25.8542C207.681 24.8621 208.472 23.9941 210.161 23.9941C211.897 23.9941 212.889 24.6606 213.695 25.9627L215.013 24.9707C213.912 23.4206 212.455 22.5991 210.301 22.5991C207.666 22.5991 206.24 24.0871 206.24 25.8232C206.24 28.0707 208.177 28.5047 210.161 28.8767C211.851 29.1712 213.478 29.4812 213.478 30.9227C213.478 32.0232 212.579 32.8602 210.952 32.8602C209.262 32.8602 208.115 32.2402 207.108 30.8607L205.852 31.8992Z" fill="#2D2D2D"/>
<path d="M223.902 34.1003V22.7851H222.399V34.1003H223.902Z" fill="#2D2D2D"/>
<path d="M233.216 24.1336L233.898 25.3272L239.323 34.1003H241.028V22.7851H239.571V31.1862L239.633 32.5657L238.998 31.3257L233.681 22.7851H231.883V34.1003H233.325V25.5442L233.216 24.1336Z" fill="#2D2D2D"/>
<path d="M257.151 34.1003V32.7362H250.455V28.9542H255.803V27.7917H250.455V24.1336H257.12V22.7851H248.967V34.1003H257.151Z" fill="#2D2D2D"/>
<path d="M263.668 31.8992C264.722 33.4493 266.412 34.2708 268.644 34.2708C271.263 34.2708 272.736 32.8447 272.736 30.9382C272.736 28.6442 270.659 28.1792 268.737 27.8382C266.954 27.5127 265.497 27.2492 265.497 25.8542C265.497 24.8621 266.288 23.9941 267.977 23.9941C269.713 23.9941 270.705 24.6606 271.511 25.9627L272.829 24.9707C271.728 23.4206 270.271 22.5991 268.117 22.5991C265.482 22.5991 264.056 24.0871 264.056 25.8232C264.056 28.0707 265.993 28.5047 267.977 28.8767C269.667 29.1712 271.294 29.4812 271.294 30.9227C271.294 32.0232 270.395 32.8602 268.768 32.8602C267.078 32.8602 265.931 32.2402 264.924 30.8607L263.668 31.8992Z" fill="#2D2D2D"/>
<path d="M279.481 31.8992C280.535 33.4493 282.225 34.2708 284.457 34.2708C287.076 34.2708 288.549 32.8447 288.549 30.9382C288.549 28.6442 286.472 28.1792 284.55 27.8382C282.767 27.5127 281.31 27.2492 281.31 25.8542C281.31 24.8621 282.101 23.9941 283.79 23.9941C285.526 23.9941 286.518 24.6606 287.324 25.9627L288.642 24.9707C287.541 23.4206 286.084 22.5991 283.93 22.5991C281.295 22.5991 279.868 24.0871 279.868 25.8232C279.868 28.0707 281.806 28.5047 283.79 28.8767C285.48 29.1712 287.107 29.4812 287.107 30.9227C287.107 32.0232 286.208 32.8602 284.581 32.8602C282.891 32.8602 281.744 32.2402 280.737 30.8607L279.481 31.8992Z" fill="#2D2D2D"/>
</svg>
