<svg width="230" height="44" viewBox="0 0 230 44" fill="none" xmlns="http://www.w3.org/2000/svg">
<path fill-rule="evenodd" clip-rule="evenodd" d="M17.6884 29.3611C17.2437 30.3032 16.6234 31.1124 15.8288 31.7879C15.0335 32.4627 14.0831 32.9902 12.9783 33.3698C11.8728 33.7494 10.6733 33.9395 9.37979 33.9395C9.00237 33.9395 8.63182 33.9266 8.26813 33.9009C7.90375 33.8737 7.50644 33.8223 7.0755 33.7451C6.64387 33.6672 6.17245 33.5678 5.65985 33.4477C5.14794 33.3262 4.54133 33.1539 3.84071 32.9287C3.38232 32.7886 3.01177 32.6764 2.72905 32.5921C2.44633 32.507 2.18352 32.4234 1.9406 32.339C1.69837 32.2547 1.46162 32.171 1.23312 32.0867C1.00392 32.0016 0.727381 31.8901 0.404177 31.7493L0 23.368H0.404177C1.05127 24.9127 1.75875 26.3095 2.52731 27.559C3.29517 28.8085 4.10353 29.8686 4.95305 30.7385C5.80189 31.6099 6.66446 32.2761 7.54006 32.7393C8.41566 33.2025 9.28509 33.4341 10.1483 33.4341C11.0377 33.4341 11.7513 33.1532 12.2914 32.5906C12.8294 32.0273 13.0997 31.2961 13.0997 30.3954C13.0997 29.4676 12.8225 28.7084 12.2708 28.118C11.7184 27.5268 10.7275 26.9778 9.29881 26.471L7.31773 25.7534C4.73072 24.8255 2.88414 23.8062 1.77865 22.6946C0.673171 21.5838 0.121459 20.2542 0.121459 18.7066C0.121459 17.7223 0.343791 16.8074 0.788454 15.9646C1.23312 15.1204 1.83973 14.3891 2.60759 13.7694C3.37615 13.151 4.28537 12.6657 5.33665 12.314C6.38792 11.9623 7.5332 11.7864 8.77386 11.7864C9.85121 11.7864 10.943 11.8701 12.0485 12.0395C13.1532 12.2075 14.4605 12.517 15.9701 12.9652L16.3743 19.8732H15.9701C15.5385 18.7774 15.0266 17.7666 14.4337 16.8395C13.8408 15.9138 13.2068 15.1132 12.5336 14.4399C11.8597 13.7658 11.1722 13.239 10.4715 12.8601C9.77024 12.4812 9.09707 12.2918 8.44997 12.2918C7.6677 12.2918 7.0007 12.5663 6.44899 13.1146C5.89591 13.6636 5.62005 14.3319 5.62005 15.1189C5.62005 16.8074 6.89983 18.0876 9.46076 18.959L12.2097 19.8868C14.3665 20.6195 15.9296 21.4909 16.8999 22.5038C17.8702 23.5167 18.3554 24.7826 18.3554 26.3016C18.3554 27.3989 18.1331 28.4189 17.6884 29.3611Z" fill="white"/>
<path fill-rule="evenodd" clip-rule="evenodd" d="M55.8182 19.101C55.8182 18.76 55.8112 18.4562 55.7979 18.186C55.7832 17.9165 55.7699 17.6684 55.7565 17.4411C55.7418 17.2145 55.7215 16.9593 55.6941 16.6748C55.5841 15.143 55.3085 14.0286 54.8683 13.3345C54.4273 12.639 53.7942 12.2916 52.9677 12.2916C51.8116 12.2916 50.9367 12.9799 50.345 14.3552C49.7525 15.732 49.4574 17.7249 49.4574 20.3355H55.8182V19.101ZM62.6341 26.8849C62.4406 27.3474 62.2478 27.7627 62.0557 28.1273C61.8629 28.4926 61.6491 28.8435 61.4149 29.1802C61.1807 29.5169 60.9122 29.8822 60.6094 30.2753C59.6454 31.4541 58.4893 32.3597 57.1398 32.9916C55.7902 33.6228 54.3032 33.9395 52.6788 33.9395C51.1365 33.9395 49.6979 33.665 48.3623 33.1175C47.0261 32.5706 45.87 31.8122 44.8927 30.8436C43.9147 29.8743 43.1506 28.7313 42.6002 27.411C42.0492 26.0915 41.7744 24.6597 41.7744 23.1149C41.7744 21.543 42.0632 20.0691 42.6416 18.6931C43.22 17.3177 44.0178 16.1168 45.0371 15.0925C46.0558 14.0674 47.2469 13.2597 48.6105 12.67C49.9734 12.0809 51.4393 11.7864 53.0097 11.7864C54.3859 11.7864 55.6528 11.9966 56.8096 12.4176C57.9663 12.8387 58.985 13.4427 59.8662 14.229C60.7475 15.0153 61.4703 15.9696 62.0346 17.0926C62.599 18.2163 62.9643 19.4658 63.129 20.8411H49.4574C49.484 26.0915 51.7836 28.7163 56.3553 28.7163C58.0897 28.7163 59.5627 28.2817 60.7748 27.411C61.2431 27.1022 61.6147 26.787 61.8902 26.4639C62.165 26.1415 62.51 25.6569 62.9229 25.0107L63.2945 25.1794C63.047 25.8527 62.8262 26.421 62.6341 26.8849Z" fill="white"/>
<path fill-rule="evenodd" clip-rule="evenodd" d="M76.9551 33.3066V32.8039C77.3396 32.7761 77.6549 32.7056 77.9024 32.5938C78.1499 32.4821 78.3484 32.314 78.4994 32.0905C78.6505 31.8669 78.7532 31.5664 78.8085 31.1877C78.8637 30.811 78.891 30.3283 78.891 29.7409V28.6928V20.764C78.891 19.8975 78.884 19.1905 78.8707 18.6451C78.856 18.1004 78.8357 17.659 78.8085 17.3244C78.7805 16.9883 78.7392 16.7156 78.684 16.5056C78.6288 16.2955 78.5456 16.0933 78.4351 15.8975C78.296 15.5899 78.0471 15.3386 77.6871 15.1421C77.327 14.947 76.9537 14.8487 76.5671 14.8487C75.5988 14.8487 74.5606 15.3521 73.4539 16.3589V28.6928V29.7409C73.4539 30.3283 73.4811 30.811 73.5364 31.1877C73.5909 31.5664 73.6867 31.8669 73.8244 32.0905C73.9614 32.314 74.1607 32.4821 74.4215 32.5938C74.6829 32.7056 75.0045 32.7761 75.3897 32.8039V33.3066H62.909V32.8039C63.7046 32.7484 64.2954 32.6579 64.6799 32.5319C65.0644 32.4066 65.3804 32.1916 65.6272 31.8847C65.8467 31.5778 65.9977 31.1599 66.0802 30.6302C66.1627 30.1019 66.204 29.1827 66.204 27.8726V21.0203C66.204 20.408 66.19 19.8719 66.1627 19.4119C66.1355 18.9527 66.0942 18.5554 66.039 18.2215C65.9838 17.8868 65.9089 17.5949 65.8125 17.3436C65.716 17.0937 65.5867 16.8566 65.4217 16.633C65.1189 16.2435 64.7687 15.958 64.3709 15.7772C63.9724 15.5956 63.4166 15.4774 62.7028 15.4219L62.6615 15.0032C63.2656 14.8644 63.8011 14.7391 64.2681 14.628C64.7351 14.5162 65.1672 14.4052 65.5657 14.2934C65.9635 14.1823 66.3676 14.0705 66.778 13.9595C67.1869 13.8477 67.6379 13.7088 68.1294 13.5408C68.5929 13.4027 69.0165 13.2766 69.399 13.1656C69.7814 13.0545 70.1638 12.9292 70.5462 12.7896C70.9279 12.6501 71.3509 12.5041 71.8151 12.3503C72.2794 12.198 72.8261 12.0093 73.4539 11.7864V15.7715C74.1677 15.0168 74.8339 14.3874 75.452 13.884C76.0693 13.3806 76.6733 12.9755 77.2641 12.6672C77.8542 12.3603 78.4519 12.1367 79.0559 11.9958C79.6593 11.8562 80.3053 11.7864 80.9918 11.7864C81.9251 11.7864 82.7564 11.9331 83.4842 12.2257C84.2113 12.5184 84.7818 12.942 85.1935 13.5002C85.5501 13.9737 85.7969 14.544 85.9346 15.2126C86.0716 15.8811 86.1409 16.7726 86.1409 17.8868V28.7085V29.7537C86.1409 30.3667 86.1541 30.8046 86.1821 31.0695C86.2094 31.3343 86.2912 31.5778 86.4289 31.8007C86.5939 32.1068 86.8414 32.3368 87.1707 32.4906C87.4999 32.643 87.9802 32.7484 88.6123 32.8039V33.3066H76.9551Z" fill="white"/>
<path fill-rule="evenodd" clip-rule="evenodd" d="M101.088 33.2325C99.9743 33.7036 98.843 33.9395 97.6928 33.9395C96.0791 33.9395 94.7258 33.4959 93.633 32.6086C92.949 32.0544 92.4702 31.3622 92.1971 30.5298C91.9234 29.6982 91.7869 28.5208 91.7869 26.9955V14.5631H86.7134C87.291 14.3145 87.7992 14.08 88.2396 13.8582C88.6792 13.6371 89.0853 13.416 89.4563 13.1941C89.8281 12.973 90.1991 12.7378 90.5702 12.4892C90.9412 12.24 91.3738 11.9358 91.8688 11.5759C93.0988 10.6633 94.2064 9.73728 95.1914 8.79649C95.6009 8.40918 95.9629 8.05639 96.2779 7.73809C96.5922 7.42121 96.8926 7.08883 97.1796 6.74237C97.4673 6.39732 97.7544 6.0234 98.0414 5.62271C98.3284 5.22203 98.6638 4.74459 99.0467 4.1911V12.6547H104.244L103.213 14.5631H99.0467V26.5385C99.0467 28.118 99.3079 29.2475 99.8301 29.927C100.352 30.6066 101.232 30.9453 102.47 30.9453C102.855 30.9453 103.213 30.9185 103.543 30.8629C103.873 30.808 104.299 30.6833 104.821 30.489L105.069 30.8207C103.529 31.9572 102.202 32.7614 101.088 33.2325Z" fill="white"/>
<path fill-rule="evenodd" clip-rule="evenodd" d="M105.606 33.3066V32.8058C106.35 32.7498 106.894 32.659 107.238 32.5335C107.582 32.408 107.864 32.1931 108.085 31.886C108.305 31.5796 108.457 31.1626 108.539 30.6321C108.622 30.1037 108.664 29.1845 108.664 27.8746V21.022C108.664 20.4085 108.65 19.8724 108.622 19.4128C108.594 18.9532 108.546 18.556 108.478 18.2213C108.408 17.8872 108.326 17.595 108.23 17.344C108.133 17.0936 108.002 16.8574 107.838 16.6333C107.534 16.2439 107.183 15.9588 106.783 15.7773C106.384 15.5964 105.826 15.478 105.11 15.4219L105.069 15.0042C105.62 14.8929 106.095 14.7886 106.495 14.6907C106.894 14.5936 107.286 14.4893 107.672 14.378C108.058 14.2659 108.478 14.1475 108.932 14.0226C109.387 13.8971 109.93 13.7368 110.564 13.5418C111.197 13.3467 111.735 13.1865 112.176 13.0609C112.616 12.9354 113.029 12.8106 113.415 12.685C113.801 12.5595 114.186 12.4283 114.572 12.2879C114.958 12.1489 115.412 11.9822 115.936 11.7864V27.8746C115.936 28.5157 115.942 29.059 115.956 29.5044C115.97 29.9505 115.998 30.3193 116.039 30.6115C116.08 30.9037 116.142 31.1484 116.225 31.3427C116.308 31.5384 116.404 31.7193 116.515 31.886C116.734 32.1931 117.017 32.408 117.361 32.5335C117.705 32.659 118.25 32.7498 118.994 32.8058V33.3066H105.606Z" fill="white"/>
<mask id="mask0" mask-type="alpha" maskUnits="userSpaceOnUse" x="107" y="0" width="10" height="10">
<path fill-rule="evenodd" clip-rule="evenodd" d="M107.408 0H116.686V9.72231H107.408V0Z" fill="white"/>
</mask>
<g mask="url(#mask0)">
<path fill-rule="evenodd" clip-rule="evenodd" d="M112.027 0.846071C111.502 0.846071 111.001 0.953382 110.537 1.16658C110.071 1.3805 109.666 1.6733 109.333 2.03574C108.996 2.40245 108.722 2.83383 108.516 3.31709C108.315 3.7904 108.213 4.30848 108.213 4.85996C108.213 5.41358 108.316 5.94161 108.518 6.42842C108.72 6.9195 108.998 7.3459 109.343 7.69626C109.692 8.05089 110.101 8.34014 110.56 8.55618C111.459 8.97903 112.592 8.97903 113.516 8.55476C113.987 8.33871 114.402 8.05018 114.751 7.69626C115.094 7.3459 115.372 6.92021 115.576 6.42842C115.778 5.94019 115.88 5.41287 115.88 4.85996C115.88 4.30848 115.778 3.78045 115.576 3.29221C115.373 2.80185 115.095 2.37544 114.75 2.02437C114.402 1.67116 113.987 1.38263 113.516 1.16658C113.053 0.953382 112.552 0.846071 112.027 0.846071ZM112.027 9.72226C111.388 9.72226 110.784 9.59079 110.231 9.32997C109.686 9.07342 109.199 8.72874 108.784 8.30589C108.362 7.87806 108.025 7.35998 107.779 6.76728C107.533 6.17315 107.408 5.53141 107.408 4.85983C107.408 4.18824 107.533 3.5529 107.78 2.97014C108.025 2.39805 108.352 1.88423 108.754 1.44646C109.16 1.00371 109.652 0.648369 110.215 0.388972C111.347 -0.12982 112.706 -0.12982 113.839 0.388972C114.397 0.645526 114.892 0.990203 115.31 1.41448C115.731 1.84372 116.069 2.36181 116.314 2.9538C116.561 3.54934 116.686 4.19108 116.686 4.85983C116.686 5.52999 116.561 6.17173 116.314 6.76728C116.068 7.36069 115.73 7.87877 115.31 8.30589C114.892 8.73087 114.397 9.07555 113.839 9.33068C113.273 9.59079 112.664 9.72226 112.027 9.72226Z" fill="white"/>
</g>
<path fill-rule="evenodd" clip-rule="evenodd" d="M40.0151 25.684C39.0828 26.6676 38.1239 27.3903 37.1365 27.8535C36.1504 28.3167 35.0534 28.5483 33.8475 28.5483C31.7093 28.5483 30.0094 27.7956 28.7491 26.2895C27.4881 24.7833 26.8579 22.7497 26.8579 20.1877C26.8579 19.0898 26.9724 18.0554 27.202 17.084C27.4323 16.1125 27.7428 15.2755 28.1357 14.5714C28.5279 13.868 28.9877 13.3119 29.5153 12.9037C30.0415 12.4963 30.6165 12.2918 31.2397 12.2918H31.8433H31.9117V12.2925H31.9138L35.3367 17.3535H38.8308V11.7864H31.9117V11.7886H31.2013C31.1783 11.7886 31.1566 11.7864 31.1336 11.7864C31.0973 11.7864 31.0617 11.7886 31.0255 11.7886H30.9054V11.7907C29.3744 11.8186 27.9424 12.1088 26.6109 12.67C25.2131 13.2597 23.9933 14.0674 22.9514 15.0925C21.9095 16.1168 21.0944 17.3242 20.5055 18.7138C19.9158 20.1034 19.6213 21.5988 19.6213 23.1993C19.6213 24.7726 19.8851 26.2108 20.4112 27.5161C20.9381 28.8221 21.6729 29.9529 22.6157 30.9072C23.5585 31.8615 24.6723 32.6064 25.9577 33.1389C27.2424 33.6722 28.6528 33.9395 30.188 33.9395C34.738 33.9395 38.1784 31.2718 40.5085 25.9371L40.0151 25.684Z" fill="white"/>
<path fill-rule="evenodd" clip-rule="evenodd" d="M131.73 1.6593C131.024 1.6593 130.623 1.76575 130.164 1.89688C129.578 2.06326 129.039 2.34102 128.548 2.73017C127.92 3.2018 127.245 3.84122 126.522 4.64702C125.799 5.45352 124.92 6.52227 123.884 7.8561L119.22 13.8583H121.634V27.3073C121.634 28.6002 121.593 29.5082 121.511 30.0306C121.429 30.553 121.266 30.9654 121.02 31.2679C120.775 31.571 120.468 31.7839 120.099 31.9073C119.731 32.0314 119.152 32.1209 118.361 32.1759V32.6736H132.598V32.1759C131.643 32.1484 130.941 32.0722 130.491 31.9489C130.041 31.8248 129.694 31.5978 129.448 31.2679C129.311 31.1036 129.209 30.9245 129.141 30.7314C129.073 30.5396 129.012 30.2985 128.957 30.0102C128.902 29.7211 128.868 29.3559 128.855 28.916C128.841 28.4761 128.835 27.9396 128.835 27.3073V13.8583H132.271L133.335 11.9055H128.835V6.31007C128.835 5.01995 129.039 4.00337 129.448 3.25961C129.857 2.51656 130.49 2.15561 131.357 2.15561H131.73L135.138 7.15041H138.615V1.6593H131.73Z" fill="white"/>
<mask id="mask1" mask-type="alpha" maskUnits="userSpaceOnUse" x="134" y="12" width="27" height="32">
<path fill-rule="evenodd" clip-rule="evenodd" d="M134.235 12.4583H160.368V43.5478H134.235V12.4583Z" fill="white"/>
</mask>
<g mask="url(#mask1)">
<path fill-rule="evenodd" clip-rule="evenodd" d="M151.011 12.4583V12.9555C151.973 13.2045 152.645 13.6046 153.031 14.1567C153.416 14.7102 153.608 15.5661 153.608 16.7258C153.608 17.3341 153.567 17.9143 153.484 18.4664C153.402 19.0191 153.25 19.6204 153.031 20.2688C152.81 20.918 152.508 21.6641 152.124 22.5067C151.739 23.3492 151.244 24.3647 150.64 25.5518L146.807 17.7202C146.504 17.1407 146.284 16.5886 146.147 16.0633C146.01 15.5386 145.941 15.097 145.941 14.7369C145.941 13.6328 146.532 13.0378 147.713 12.9555V12.4583H134.235V12.9555C134.841 13.0111 135.3 13.0934 135.616 13.2038C135.932 13.3135 136.24 13.5062 136.543 13.7812C136.708 13.9464 136.853 14.0983 136.976 14.2355C137.1 14.3726 137.23 14.5449 137.368 14.751C137.505 14.9577 137.656 15.2257 137.821 15.5555C137.986 15.8861 138.205 16.3256 138.481 16.8763L146.683 33.5501C143.033 37.2057 138.473 35.8913 136.512 35.1677V43.5478C141.562 43.5478 142.804 40.8888 145.81 35.9328L147.245 33.5558L153.484 21.0122C154.089 19.7998 154.741 18.6436 155.442 17.5423C156.142 16.4395 156.822 15.5035 157.482 14.732C157.73 14.457 157.949 14.2299 158.142 14.0505C158.334 13.8719 158.539 13.7129 158.76 13.5751C158.979 13.438 159.214 13.3205 159.461 13.2242C159.707 13.1278 160.01 13.0378 160.368 12.9555V12.4583H151.011Z" fill="white"/>
</g>
<path d="M169.685 33V28.005H175.61V33H177.065V22.05H175.61V26.895H169.685V22.05H168.23V33H169.685ZM189.429 33.15C192.954 33.15 194.694 30.495 194.694 27.51C194.694 24.48 192.984 21.9 189.459 21.9C186.114 21.9 184.239 24.54 184.239 27.51C184.239 30.525 185.829 33.15 189.429 33.15ZM189.444 31.83C186.849 31.83 185.724 29.835 185.724 27.51C185.724 25.17 187.029 23.205 189.459 23.205C192.009 23.205 193.194 25.14 193.194 27.51C193.194 29.835 192.024 31.83 189.444 31.83ZM207.807 30.705L207.477 31.755L207.162 30.705L203.877 22.05H201.867V33H203.277V24.93L203.202 23.16L203.757 24.93L206.847 33H208.062L211.197 24.915L211.752 23.13L211.677 24.93V33H213.102V22.05H211.167L207.807 30.705ZM228.707 33V31.68H222.227V28.02H227.402V26.895H222.227V23.355H228.677V22.05H220.787V33H228.707Z" fill="white"/>
</svg>
