<?xml version="1.0" encoding="UTF-8"?>
<svg width="143px" height="155px" viewBox="0 0 143 155" version="1.1" xmlns="http://www.w3.org/2000/svg" xmlns:xlink="http://www.w3.org/1999/xlink">
    <title>StackedLogo_Original</title>
    <g id="Page-1" stroke="none" stroke-width="1" fill="none" fill-rule="evenodd">
        <g id="1-lion---homepage---1792px" transform="translate(-1509.000000, -4997.000000)" fill="#ffffff">
            <g id="footer" transform="translate(0.000000, 4903.000000)">
                <g id="lets-get-roaring" transform="translate(1278.044444, 94.333333)">
                    <g id="StackedLogo_Original" transform="translate(230.222222, 0.000000)">
                        <path d="M75.9484444,5.64533333 L71.2195556,41.3857778 L66.4906667,5.64533333 C66.2034572,3.92249336 66.8790677,2.18020655 68.2526827,1.10138829 C69.6262976,0.0225700286 71.4790626,-0.220894486 73.0847586,0.466424307 C74.6904546,1.1537431 75.7932505,2.66233655 75.9608889,4.40088889 C76.0088157,4.81459097 76.0046349,5.23267242 75.9484444,5.64533333 Z" id="Path"></path>
                        <path d="M66.4906667,148.607111 L71.2195556,121.752 L75.9484444,148.607111 C76.2463247,150.298803 75.6190702,152.020909 74.3029618,153.124727 C72.9868533,154.228545 71.1818391,154.546379 69.5678505,153.958505 C67.9538619,153.37063 66.7761022,151.966359 66.4782222,150.274667 C66.3871208,149.722182 66.3913298,149.158175 66.4906667,148.607111 L66.4906667,148.607111 Z" id="Path"></path>
                        <path d="M90.5333333,137.245333 L86.0408889,110.216 L99.4684444,134.096889 C100.713174,136.403701 99.8787781,139.282477 97.5933808,140.566103 C95.3079834,141.849729 92.4154868,141.064215 91.0933333,138.800889 C90.8199622,138.317806 90.6306042,137.791812 90.5333333,137.245333 L90.5333333,137.245333 Z" id="Path"></path>
                        <path d="M112.286222,125.323556 L97.3528889,101.828444 L119.242667,118.976889 C120.594242,120.03503 121.278638,121.73385 121.038048,123.433419 C120.797459,125.132989 119.668435,126.575103 118.07627,127.216531 C116.484105,127.857959 114.670687,127.601253 113.319111,126.543111 C112.910433,126.195818 112.561503,125.783828 112.286222,125.323556 L112.286222,125.323556 Z" id="Path"></path>
                        <path d="M128.849778,107.577778 L106.001778,90.9395556 L133.068444,99.1031111 C134.735173,99.5789138 136.016303,100.915746 136.420781,102.601204 C136.82526,104.286663 136.290347,106.059311 135.021073,107.239699 C133.751799,108.420088 131.945045,108.825123 130.293333,108.299556 C129.775582,108.140354 129.28779,107.896458 128.849778,107.577778 L128.849778,107.577778 Z" id="Path"></path>
                        <path d="M136.577778,87.4924444 L109.872,77.5368889 L138.344889,78.1342222 C140.113745,78.0886865 141.76441,79.019289 142.641068,80.5562977 C143.517726,82.0933064 143.478411,83.9878171 142.538742,85.4871328 C141.599073,86.9864486 139.911222,87.8477694 138.145778,87.7288889 C137.613835,87.7343659 137.084452,87.6545384 136.577778,87.4924444 Z" id="Path"></path>
                        <path d="M138.382222,63.96 L109.934222,65.1422222 L136.428444,54.7013333 C138.876229,53.8064324 141.591086,55.0267046 142.54678,57.4513994 C143.502475,59.8760943 142.350318,62.6205515 139.950222,63.6364444 C139.448438,63.8281947 138.918923,63.9374596 138.382222,63.96 Z" id="Path"></path>
                        <path d="M132.346667,43.1902222 L105.690667,52.4737778 L127.779556,34.9022222 C129.850978,33.5516143 132.609324,33.9942952 134.154094,35.9252582 C135.698864,37.8562211 135.525258,40.6444637 133.752889,42.3688889 C133.333209,42.7191402 132.857914,42.9967462 132.346667,43.1902222 Z" id="Path"></path>
                        <path d="M118.483556,24.3866667 L97.1537778,42.12 L111.278222,18.2017778 C112.641892,15.9537787 115.559472,15.2198469 117.824508,16.5550265 C120.089545,17.890206 120.860254,20.7982866 119.553778,23.08 C119.275307,23.5741835 118.913195,24.0162973 118.483556,24.3866667 L118.483556,24.3866667 Z" id="Path"></path>
                        <path d="M99.5555556,12.2533333 L84.5351111,35.2382222 L90.8568889,8.52 C91.2205335,6.81658387 92.4777961,5.44348395 94.142651,4.93150556 C95.807506,4.41952717 97.6190669,4.84889846 98.8770306,6.05363547 C100.134994,7.25837247 100.642235,9.04969023 100.202667,10.7351111 C100.074296,11.2741135 99.8554935,11.787458 99.5555556,12.2533333 Z" id="Path"></path>
                        <path d="M44.2275556,134.096889 L57.6551111,110.216 L53.1626667,137.245333 C52.8803475,138.939249 51.7157807,140.353875 50.1076475,140.956337 C48.4995142,141.558799 46.6921282,141.257568 45.3663141,140.166115 C44.0405001,139.074662 43.3976808,137.358804 43.68,135.664889 C43.7720236,135.114888 43.9571982,134.584615 44.2275556,134.096889 L44.2275556,134.096889 Z" id="Path"></path>
                        <path d="M24.3164444,118.976889 L46.2684444,101.853333 L31.3351111,125.348444 C30.4366434,126.841226 28.8002948,127.730468 27.0589588,127.672236 C25.3176228,127.614005 23.7443375,126.61743 22.9476054,125.067959 C22.1508733,123.518488 22.2556203,121.659075 23.2213333,120.208889 C23.5142298,119.739365 23.8844981,119.322813 24.3164444,118.976889 L24.3164444,118.976889 Z" id="Path"></path>
                        <path d="M10.6275556,99.1031111 L37.6942222,90.9395556 L14.8088889,107.577778 C13.4247032,108.647009 11.5687388,108.879364 9.96368334,108.184365 C8.35862787,107.489367 7.25819245,105.976874 7.09087187,104.235831 C6.9235513,102.494789 7.71579393,100.800403 9.15911111,99.8124444 C9.60556384,99.4956854 10.1019092,99.2559254 10.6275556,99.1031111 L10.6275556,99.1031111 Z" id="Path"></path>
                        <path d="M5.32622222,78.2088889 L33.7991111,77.6115556 L7.09333333,87.5671111 C4.65085455,88.3386262 2.03267512,87.0579358 1.14240361,84.6561959 C0.252132098,82.2544559 1.40299134,79.5766668 3.75822222,78.5697778 C4.25785985,78.3652463 4.78744326,78.243358 5.32622222,78.2088889 Z" id="Path"></path>
                        <path d="M7.25511111,54.7013333 L33.7493333,65.1422222 L5.30133333,63.96 C2.71014467,63.7757293 0.734926035,61.5648451 0.842650983,58.9693471 C0.950375931,56.3738491 3.10200901,54.3342479 5.69955556,54.3653333 C6.23273807,54.3931852 6.75796749,54.5066348 7.25511111,54.7013333 Z" id="Path"></path>
                        <path d="M15.8915556,34.9022222 L38.0053333,52.4737778 L11.3493333,43.1902222 C8.86193169,42.3047364 7.55548282,39.5776851 8.42420648,37.0843798 C9.29293014,34.5910745 12.0111262,33.2663001 14.5102222,34.1182222 C15.0096608,34.3039382 15.4760409,34.5686404 15.8915556,34.9022222 Z" id="Path"></path>
                        <path d="M32.4053333,18.2515556 L46.5297778,42.12 L25.1875556,24.3866667 C23.8246483,23.302071 23.1556503,21.5646723 23.439179,19.8461045 C23.7227078,18.1275367 24.9143337,16.6971031 26.5534047,16.1077728 C28.1924757,15.5184426 30.0221457,15.862565 31.3351111,17.0071111 C31.7592418,17.3588445 32.1210509,17.7795527 32.4053333,18.2515556 L32.4053333,18.2515556 Z" id="Path"></path>
                        <path d="M52.8142222,8.52 L59.1608889,35.2257778 L44.1155556,12.2533333 C42.7653711,10.0379668 43.4182658,7.15078689 45.5902815,5.73191594 C47.7622972,4.31304499 50.6685,4.87524173 52.1546667,7.00177778 C52.4589728,7.46681521 52.6820023,7.98020384 52.8142222,8.52 L52.8142222,8.52 Z" id="Path"></path>
                        <path d="M90.3715556,64.6444444 C94.2542222,64.2213333 96.0337778,60.824 95.088,56.7297778 C94.8210445,56.6190328 94.5407351,56.5437258 94.2542222,56.5057778 C91.2177778,56.5057778 88.1813333,56.4062222 85.1448889,56.5057778 C80.1671111,56.5928889 77.6782222,59.592 78.3626667,64.7813333 C82.3652025,64.9501502 86.3739079,64.9044552 90.3715556,64.6444444 Z" id="Path"></path>
                        <path d="M89.824,90.6533333 C87.9321519,91.3634576 85.9332393,91.7464072 83.9128889,91.7857778 C83.581037,91.7857778 83.245037,91.7857778 82.9048889,91.7857778 C81.0373198,91.6471489 79.2450131,90.9922676 77.728,89.8942222 C76.1567023,88.5551922 74.9459164,86.843834 74.2062222,84.9164444 C76.1020911,84.7915867 77.8651789,83.8994168 79.0886597,82.4457996 C80.3121405,80.9921823 80.8903172,79.1026963 80.6897778,77.2133333 C80.6511689,76.809739 80.3112104,76.5021575 79.9057778,76.504 L69.1164444,76.504 L69.1164444,65.304 C69.1095898,60.3652436 65.1076453,56.3632991 60.1688889,56.3564444 L49.4168889,56.456 C49.130376,56.493948 48.8500666,56.569255 48.5831111,56.68 C47.6497778,60.7742222 49.4168889,64.1466667 53.2995556,64.5946667 C56.4375207,64.8455624 59.5885203,64.8912893 62.7324444,64.7315556 C62.774108,64.9195124 62.7949741,65.1114811 62.7946667,65.304 L62.7946667,78.4951111 C62.8028783,82.0925289 65.4545927,85.136697 69.0168889,85.6382222 C68.3236343,87.2573944 67.2525575,88.6869192 65.8933333,89.8071111 C64.3763203,90.9051565 62.5840135,91.5600378 60.7164444,91.6986667 C60.3845926,91.6986667 60.0485926,91.6986667 59.7084444,91.6986667 C57.6881194,91.6590546 55.6892472,91.2761128 53.7973333,90.5662222 C51.9422715,90.0244097 50.3794017,88.7660532 49.4542222,87.0693333 C49.4542222,87.4551111 49.4542222,87.9404444 49.4542222,88.3137778 C49.4564424,88.7300352 49.48554,89.1457149 49.5413333,89.5582222 C49.6452174,90.344667 49.8372395,91.1169299 50.1137778,91.8604444 C50.8524702,93.8808437 52.2981126,95.565216 54.1831111,96.6017778 C55.9617782,97.5202095 57.9438004,97.973977 59.9448889,97.9208889 C63.3321941,98.0612441 66.6462599,96.9091058 69.216,94.6977778 C69.706419,94.2210056 70.1521331,93.7003115 70.5475556,93.1422222 C70.9755415,92.6099119 71.3467416,92.0343431 71.6551111,91.4248889 C71.7600842,91.403496 71.8455586,91.3275188 71.8791111,91.2257778 C71.7422222,91.512 72.8248889,92.9057778 73.0115556,93.1546667 C73.406978,93.712756 73.8526921,94.23345 74.3431111,94.7102222 C76.9003971,97.004059 80.242737,98.2251272 83.6764444,98.12 C85.6775329,98.1730881 87.6595552,97.7193206 89.4382222,96.8008889 C91.3232207,95.7643271 92.7688631,94.0799548 93.5075556,92.0595556 C93.7841947,91.3160722 93.9762197,90.5437978 94.08,89.7573333 C94.1357933,89.344826 94.1648909,88.9291463 94.1671111,88.5128889 C94.1671111,88.1146667 94.1671111,87.6293333 94.1671111,87.2684444 C93.2194288,88.9227312 91.6596441,90.13838 89.824,90.6533333 L89.824,90.6533333 Z" id="Path"></path>
                    </g>
                </g>
            </g>
        </g>
    </g>
</svg>